<svg width="55" height="55" viewBox="0 0 55 55" fill="none" xmlns="http://www.w3.org/2000/svg">
<rect width="55" height="55" fill="#0C1601"/>
<path fill-rule="evenodd" clip-rule="evenodd" d="M23.9133 5.97772C23.9133 4.39239 23.2836 2.87193 22.1623 1.75064C21.041 0.629358 19.5205 0 17.9356 0H5.97772C4.39239 0 2.87193 0.629317 1.75064 1.75064C0.629358 2.87197 0 4.39239 0 5.97772V17.9356C0 19.5205 0.629317 21.041 1.75064 22.1623C2.87193 23.2836 4.39239 23.9133 5.97772 23.9133H17.9356C19.5205 23.9133 21.041 23.2836 22.1623 22.1623C23.2836 21.041 23.9133 19.5205 23.9133 17.9356V5.97772ZM21.5222 5.97772V17.9356C21.5222 18.8868 21.1443 19.7984 20.4717 20.4717C19.7984 21.1443 18.8868 21.5222 17.9356 21.5222H5.97772C5.02654 21.5222 4.11496 21.1443 3.44123 20.4717C2.76867 19.7984 2.39117 18.8868 2.39117 17.9356V5.97772C2.39117 5.02654 2.76868 4.11496 3.44123 3.44123C4.11498 2.76867 5.02656 2.39117 5.97772 2.39117H17.9356C18.8868 2.39117 19.7984 2.76868 20.4717 3.44123C21.1443 4.11498 21.5222 5.02656 21.5222 5.97772V5.97772Z" fill="white"/>
<path fill-rule="evenodd" clip-rule="evenodd" d="M23.9133 37.0648C23.9133 35.4799 23.2836 33.9594 22.1623 32.8381C21.041 31.7168 19.5205 31.0871 17.9356 31.0871H5.97772C4.39239 31.0871 2.87193 31.7168 1.75064 32.8381C0.629358 33.9594 0 35.4799 0 37.0648V49.0227C0 50.608 0.629317 52.1285 1.75064 53.2498C2.87197 54.3711 4.39239 55.0004 5.97772 55.0004H17.9356C19.5205 55.0004 21.041 54.3711 22.1623 53.2498C23.2836 52.1285 23.9133 50.608 23.9133 49.0227V37.0648ZM21.5222 37.0648V49.0227C21.5222 49.9739 21.1443 50.8855 20.4717 51.5592C19.7984 52.2317 18.8868 52.6092 17.9356 52.6092H5.97772C5.02654 52.6092 4.11496 52.2317 3.44123 51.5592C2.76867 50.8854 2.39117 49.9739 2.39117 49.0227V37.0648C2.39117 36.1136 2.76868 35.202 3.44123 34.5287C4.11498 33.8561 5.02656 33.4782 5.97772 33.4782H17.9356C18.8868 33.4782 19.7984 33.8561 20.4717 34.5287C21.1443 35.2021 21.5222 36.1136 21.5222 37.0648Z" fill="white"/>
<path fill-rule="evenodd" clip-rule="evenodd" d="M55 5.97772C55 4.39239 54.3707 2.87193 53.2494 1.75064C52.128 0.629358 50.6076 0 49.0223 0H37.0644C35.4795 0 33.959 0.629317 32.8377 1.75064C31.7164 2.87193 31.0867 4.39239 31.0867 5.97772V17.9356C31.0867 19.5205 31.7164 21.041 32.8377 22.1623C33.959 23.2836 35.4795 23.9133 37.0644 23.9133H49.0223C50.6076 23.9133 52.1281 23.2836 53.2494 22.1623C54.3706 21.041 55 19.5205 55 17.9356V5.97772ZM52.6088 5.97772V17.9356C52.6088 18.8868 52.2313 19.7984 51.5588 20.4717C50.885 21.1443 49.9734 21.5222 49.0223 21.5222H37.0644C36.1132 21.5222 35.2016 21.1443 34.5283 20.4717C33.8557 19.7984 33.4778 18.8868 33.4778 17.9356V5.97772C33.4778 5.02654 33.8557 4.11496 34.5283 3.44123C35.2016 2.76867 36.1132 2.39117 37.0644 2.39117H49.0223C49.9735 2.39117 50.885 2.76868 51.5588 3.44123C52.2313 4.11498 52.6088 5.02656 52.6088 5.97772V5.97772Z" fill="white"/>
<path fill-rule="evenodd" clip-rule="evenodd" d="M55 37.0648C55 35.4799 54.3707 33.9594 53.2494 32.8381C52.1281 31.7168 50.6076 31.0871 49.0223 31.0871H37.0644C35.4795 31.0871 33.959 31.7168 32.8377 32.8381C31.7164 33.9594 31.0867 35.4799 31.0867 37.0648V49.0227C31.0867 50.608 31.7164 52.1285 32.8377 53.2498C33.959 54.3711 35.4795 55.0004 37.0644 55.0004H49.0223C50.6076 55.0004 52.1281 54.3711 53.2494 53.2498C54.3706 52.1284 55 50.608 55 49.0227V37.0648ZM52.6088 37.0648V49.0227C52.6088 49.9739 52.2313 50.8855 51.5588 51.5592C50.885 52.2317 49.9734 52.6092 49.0223 52.6092H37.0644C36.1132 52.6092 35.2016 52.2317 34.5283 51.5592C33.8557 50.8854 33.4778 49.9739 33.4778 49.0227V37.0648C33.4778 36.1136 33.8557 35.202 34.5283 34.5287C35.2016 33.8561 36.1132 33.4782 37.0644 33.4782H49.0223C49.9735 33.4782 50.885 33.8561 51.5588 34.5287C52.2313 35.2021 52.6088 36.1136 52.6088 37.0648Z" fill="white"/>
</svg>
